<?xml version="1.0" encoding="UTF-8"?>
<svg id="Layer_2" data-name="Layer 2" xmlns="http://www.w3.org/2000/svg" viewBox="0 0 428.23 111.5">
  <defs>
    <style>
      .cls-1 {
        fill: #b0a1e4;
        stroke-width: 0px;
      }
    </style>
  </defs>
  <g id="Dibujos">
    <g>
      <path class="cls-1" d="M140.77,27.38c-.45.47-.1,1.42,1.23,1.12l.82-1.73-2.05.61Z"/>
      <path class="cls-1" d="M150.05,29.69c1.51-.93,3.22-2.48,2.07-3.91-1.43,1.71-1.87,1.08-3.4,3.11-1.33.3-2.39-.34-2.21-.96-.44.46-2.12-.19-2.75.9,1.85,1.13,4.07,1,6.3-.24.53.32.08.79,0,1.11Z"/>
      <path class="cls-1" d="M281.55,25.38l-.85-.2c.23.11.52.17.85.2Z"/>
      <path class="cls-1" d="M362.55,31.04c-.62-.03-.89.1-.94.24.58-.04,1.06-.09.94-.24Z"/>
      <path class="cls-1" d="M375.99,34.77c-.28-.1-.53-.15-.79-.23.28.2.58.33.79.23Z"/>
      <path class="cls-1" d="M281.55,25.38l2.17.53c.15-.54-1.11-.4-2.17-.53Z"/>
      <path class="cls-1" d="M167.84,24.25c-.45.12-.82.3-1.15.53.37-.1.73-.19,1.1-.26.01-.09.02-.17.05-.26Z"/>
      <path class="cls-1" d="M245.72,27.37l-.66.03c-.19.2-.36.43-.52.69l1.18-.73Z"/>
      <path class="cls-1" d="M218.24,28.92c.63.03.76-1.39.97-2.01-.32.6-.76.9-1.3,1.03,0,.27.11.58.34.98Z"/>
      <path class="cls-1" d="M174.46,29.45l-.76.25c.2-.08.53-.16.76-.25Z"/>
      <path class="cls-1" d="M265.41,27.16c.05.21.15.39.26.5,0-.18-.1-.34-.26-.5Z"/>
      <path class="cls-1" d="M144.8.85c-.02.1,0,.16,0,.25.17-.14.22-.24,0-.25Z"/>
      <path class="cls-1" d="M176.55,10.08l-.45.02c-.08.26-.16.51-.2.77l.65-.79Z"/>
      <path class="cls-1" d="M399.01,41.84s-.05-.04-.08-.06c-.6-.07-.28.03.08.06Z"/>
      <path class="cls-1" d="M238.85,98.48c2.65,1.24-4.3,1.63-.31,3.01-.37-.55,3.61-2.21.31-3.01Z"/>
      <path class="cls-1" d="M168.57,24.38c.37-.05.75-.09,1.13-.1-.52,0-.86.03-1.13.1Z"/>
      <path class="cls-1" d="M238.54,101.49h0s.41.14.41.14c-.17-.06-.27-.09-.41-.14Z"/>
      <path class="cls-1" d="M408.32,75.01c.22.17.47.22.74.26-.09-.12-.28-.2-.74-.26Z"/>
      <path class="cls-1" d="M411.43,46.17l.54.78c-.17-.34-.36-.58-.54-.78Z"/>
      <path class="cls-1" d="M389,84.17c-.59.06-.83-.07-1.54.34.09.05.17.08.28.1.22-.27.57-.46,1.26-.43Z"/>
      <path class="cls-1" d="M366.32,89.79c.14.08.32.12.48.18.22-.07.48-.16.71-.24l-1.19.05Z"/>
      <path class="cls-1" d="M72.06,9.87c.61.25,1.03.59,1.38.95-.6-.88,2.77-2.06-1.38-.95Z"/>
      <path class="cls-1" d="M167.91,25.04c.11-.36.3-.56.65-.66-.27.04-.53.09-.78.14-.05.21-.05.41.13.52Z"/>
      <path class="cls-1" d="M391.09,95.11c-1.24.31-2.5.56-3.76.81,1.07-.13,2.44-.41,3.76-.81Z"/>
      <path class="cls-1" d="M79.08,100.68h-.89c.33.1.64.12.89,0Z"/>
      <path class="cls-1" d="M376.35,98.89c-.78-.33-1.55-.45-2.32-.47-.13.14-.29.27-.35.45l2.67.02Z"/>
      <path class="cls-1" d="M73.45,10.83s-.01-.01-.01-.01c0,0,0,0,.01.01Z"/>
      <path class="cls-1" d="M97.64,2.69c-3.65.53-1.43,2.05-2.03,3.22-4.21,1.19-2.21-1.03-3.85-1.73-2.61.99-4.35,3.05-6.35,3.36-.21-.27-.62-.3-.24-.77-.64.5-1.48.85-2.43,1.13-.94.32-1.99.58-3.06.85-2.12.54-4.3,1.15-5.71,2.41-.28-.11-.44-.23-.53-.35.74.77,1.05,1.67,1.1,2.35-1.57.42-2.62,1.88-3.51.86.97-.22.93-.71,1.29-1.19l-1.52.94c-1.91-1.29,2.1-1.17,1.79-2.41-3.09,1.41-6.46,3.7-9.02,3.96-.99-1.54,5.59-2.11,1.9-2.7l3.99-.37c-3.61-1.83,2.38-.43-1.04-2.5-5.22.82-5.43,2.35-10.58,3.36-.85,1.24.77,1.23-.07,2.46-1.64.92-2.88,1.25-3.89,1.3-1.01.04-1.8-.24-2.53-.52-1.46-.56-2.69-1.13-4.91.8-.97,1.52-.73,3.76-4.74,4.02l.57-2.26c-2.41.79-2.84,1.69-3.34,2.47-.51.78-1.09,1.41-3.76,1.83.29-.53,1.15-1.05,1.84-1.44.69-.37,1.22-.59.81-.56-3.75-.15-1.85,1.92-4.28,2.91l-1.15-1.37c-1.22.57-2.45,1.22-3.69,1.9-1.25.71-2.59,1.5-3.85,2.36-2.56,1.7-5.1,3.54-7.61,5.46,0-.61.63-1.66-.92-1.26-3.14,2.65-6.57,5.44-9.71,9.02-1.6,1.74-3,3.83-4.24,6.04-1.11,2.3-2.08,4.79-2.41,7.35.22.67.41,1.31.67,1.93.29.62.59,1.21.89,1.79.07.83-.49,1.68-.87.78-.05.98.12,1.48.21,1.69.12.21.26.14.42,0,.32-.28.74-.79,1.21,0,.61,1.93,0,2.91-.85,1.74.77,1.53,1.86,3.23,3.16,4.83,1.29,1.61,2.78,3.12,4.29,4.5,3.02,2.76,6.1,5,7.99,7.2l-1.15-.24c1.66,1.49,3.11,1.47,4.41,1.48,1.33,0,2.52.11,3.86,1.64l-.78-.12c3.79,2.46,8.13,4.43,12.22,6.21,4.1,1.76,7.92,3.44,10.83,5.57,1.87-1.54,8.21,3.6,9.59.86,2.24,1.39,3,2.1,4.03,2.8,1.03.7,2.32,1.45,5.72,2.72,1.85.58,3.19-1.19,5.55-1l-.25,1.52c1.16-.3,2.31-.64,3.45-.96l1.33,2.13h2.25c-.85-.23-1.71-1-1.5-1.42,3.5-.06,8.07,2.49,8.04,3.27,2.75,0,5.49-.01,8.22-.08-.27.59-1.64.62-2.76.85,4.51-.95.55,1.72,4.68.84-.48-.42.41-.87.54-1.17.91.59,2.49,1.06,4.25,1.36,1.76.29,3.72.43,5.39.44l-.76.98c5.94,1.01,12.65.91,19.35,1.55-2.36-.72-1.63-2.5.34-2.49l.64,1.69c1.36-.9-1.99-.79.71-1.8,2.48.39,1.52,1.98.04,2.39l3.09-.31c.14.5-.6.7-.83,1.3,1.33-.91,5.14,2.08,7.08.44l.14.5c6.71.51,9.79.11,15.26.36.18-1.4,2.3-.98,3.98-2.03,3.98.67,8.39,1.94,13.22,2.02,3.42-.58,1.03-1.16,2.59-1.94.2,1.29,5.03,1.33,2.5,2.17,5.8-.03,7.42-.02,14.76-.91-.78-.54-1.67-.79-1.2-1.21,1.33-.18,3.01.6,2.81,1.21l-.35.13c8.24-1.76,18.93,4.01,25.49,1.37l-.37.13,6.78-1.36c3.12.23-1.87.96.43,1.76,7.32-2.12,11.55.33,17.58-1.11,4.69,3.77,16.56-.36,22.91,1.9l-.38-.88c1.61-.91,1.98.47,3.19.65-.19-.69-1.79-.76-.78-1.27,13.78-1.36,28.58.43,42.89.17,5.23-.18,2.58-4.77,9.3-3.25l-1.71,1.82c10.29-2.9,21.46-2.14,31.45-5.32-.55.46-.5.95-1.5,1.09,2.35.94,7.99-1.23,7.86-2.18,1.6-.15.51.81,1.58,1.14,1.14.17,2.44-.43,3.61-.96,1.17-.54,2.22-1.02,2.9-.54.23.15-.53.5-.91.67,1.3-.84,6.58-1.13,4.96-2.22,3.95-.05,7.14-2.12,10.34-2,.81-.98,2.47-1.16,3.95-1.38,1.47-.24,2.75-.57,2.8-1.7.27,2.25,7.07.09,9.15-1.61-.61.89,2.24.08,1.58,1.26,2.7-.83,5.05-1.96,4.25-2.93,1.43.28,2.74.11,3.95-.27,1.22-.39,2.36-1.03,3.42-1.63,2.15-1.21,3.97-2.32,6.13-1.36,3.95-2.42,7.77-5.12,10.89-8.67,1.55-1.76,2.92-3.7,3.99-5.77,1.03-2.08,1.81-4.3,2.23-6.53.53.21.63.95.5,1.95-.04.51-.24,1.05-.44,1.63-.22.57-.41,1.2-.71,1.75-1.05,2.31-2.54,4.22-1.47,4.8,1.24-1.99,2.05-3.94,2.53-5.87.25-.96.46-1.88.55-2.81.05-.46.11-.91.16-1.36.04-.45.03-.89.05-1.34.07-3.54-.35-6.81-1.02-10.85-.12-1.06.19-.84.61-.26.39.59.87,1.57,1.13,1.91-1.25-4.19-2.78-7.9-4.79-11.23-2.04-3.28-4.61-6.16-7.81-8.02.15-.15.91.18,1.59.55-1.14-.92-2.41-2.43-2.89-1.48.42.18.84.4,1.25.63.21.66-.1.9-.66.92-.28.01-.62-.04-1-.11-.38-.06-.8-.14-1.22-.24-.84-.21-1.74-.41-2.46-.53-.71-.13-1.25-.17-1.41-.02,1.7-.7.42-1.68-.75-2.66-1.16-.92-2.23-1.89.24-2.71-.89-.26-2.12-.28-2.22.42-1.09-.72-1.33-1.27.22-1.42-1.17-.4-1.98-.52-2.59-.58-.61-.06-1.02-.02-1.41.02-.79.08-1.48.08-3.48-.58.16-.47,1.04-.38,1.65-.79-2.38.21-4.66.55-7.94-.68.27-.24-.03-.72.98-.46-2.96-.64-5.57-.49-8.19-.45-2.62.03-5.25.02-8.33-.89,2.19-1.86-2.03-1.02-2.1-2.91l-3.48.05,1.23,1.1c-2.97-.45-5.77.45-8.25-.43l2.31-.5-5.63-.31,3.07,1.08c-3.13.6.02,2.38-3.86,1.4.82-.1-2.96-.37-4.39-1.65h.01c-1.54.42-3.11.83-5.26.16-.51-.65.67-2.01.34-2.44-1.61,1.42-7.04-.21-9.03,1.28.65-.33.77-1.3.58-1.52l-1.33,1.15c-1.34-.53-1.53-.74-1.24-1.5-4.14-.61,1.12,2.47-3.72,1.02.4-.08.23-.28,1.05-.4-4.92-.9-9.64.15-14.15-.78-1.24-1.96,4.01-.19,2.57-1.88-3.31-.08-6.75.34-10.15.66-3.4.32-6.77.52-9.94.2l1.18.24c-.96,2.62-4.7-1.42-7.96-.25.79-.18,1.07-1.45.85-1.16-2.18-.26-4.42-.15-6.93.11-2.52.26-5.31.76-8.62,1.16l.82-.68c-2.57-.61-6.77-.39-9.55-.68-.82.69-2.41.6-1.44,1.58-4.29-1.88-8.38-1.31-12.33-.65-3.95.7-7.75,1.5-11.6,0,.91-.03,2.15-.66,1.42-.64-2.15.28-4.3.53-6.44.83.55,1.14.87.66,2.26,1.52-.79.7-2.59,1.31-4.19,1.38,2.87-.89-.09-1.85-1.37-2.44.22.34-.19.75-.07,1.11-3.45-1.91-.47,2.35-5.13,1.16l.22-.62c-1.71.38-3.26,1.25-5.12,1.15-.83-1.3,1.8-.7,1.87-1.8-2.61.17-5.02,2.78-7.44,1.57,1.09-.43,2.68-.52,3.77-.95-2.65-1.43-2.93-1.02-4.85-1.16l.19.03-4.46-.47,1.15.37c-3.07,3.65-6.61.98-10.86,3.55,4.14-2.42.63-1.29.86-2.82-1.15-.35-2.88-.71-2.42-1.17-2,1.35-3.53-.74-6.35,1.22-.16-.48-2.23.09-1.84-1.16-2.68.56.69.8.51,1.43-4.04,1.94-9.92-1.33-15.74,1.37-5.09,1.33-5.91,3.04-10.63,4.22-1.67-.65,1.18-1.87,1.18-1.87-2.66-.52-4.61-.24-7.02.51.46-.46-.08-.78-.87-1.27-1.96.29-1.18,1.88-3.83,1.37.4-.58.9-1.49,1.81-2.11-2.28.63-4.5,1.72-6.87,2.35-.71-.8,1.35-1.4,2.15-2.02-2.67.6-6.93,1.33-7.65,2.74l1.77.34c-.98.14-.6-1.11.11-1.41,2.23-1.24,3.37.2,3.54.68l-1.68.45c1.99,2.71,6.83-1.01,10.28-1.12l-1.27,2.19,3.39-2c.79.48,1.4,1.6-.28,2.04,2.55.83,2.13-.91,4.33.07.25.16.15.27-.06.37l2.36-.8c-.44.47.51,1.43-.99,1.25,4.41.87,6.85-2.09,8.6-.64l-.35.16c5.95-1.15.47-1.57,4.84-3.68l3.3,3.54.48-1.56c.62.01,1.86.04,1.67.66,2.23-1.2-.44-.63.83-1.71,3.08,1.17,8.18-1.22,9.01,1.17.99-1.22-2.91-.71.22-1.72,1.08,2.55,3.65-.68,6.45.35-.75,1.4-3.38.85-.58,1.88,1.5-2.37,5.33.15,7.6-.4,0-1.82,4.95-1.02,8.77-1.83-.11.31,1.72.46,4.02.6,2.3.14,5.09.3,6.89.55l-.09.31c.61-1.86,4.33-1.67,7.01-2.16-.07,1.1-.53,1.56-1.97,2.11l2.53-.11c.58-.61,1.35-.96,2.99-1.21l-.59,1.39c3.36-.17,6.73-1.81,11.09-1.02.22-1.29-3.54-3.47,1.03-4.45.19.69.38,1.87-.81,2.18.39-.1,1.39-.61,2.19-.34l-1.81,1.22c1.99.46,1.01-1.01,2.59-.93-.01.99,1.18.69.97,1.48-.4.1-1.39-.39-1.98.02,1.78.13,3.95.7,4.67,1.44-.16-.56-.02-1.33,1.28-1.47,3.37-.12,1.17,1.17,3.14,1.65.81-.7,2.96-.02,3-1.49.99,0,1.17.68,1.56,1.07,1.74-.71,8.13-.18,6.17-1.77l-.45-.11c.08-.03.18-.03.29-.06h-.01.01c5.73-1.45,11.87.85,17.55.39l-.02.49c3.4-.47,7.54-.19,9.99-1.14,1,.05,2.33,1,1.88,1.57,2.6-.26,2.91-.8,6.61.18-2.64.75.86.8-2.69.51,3.34.57,4.05,1.39,7.72.21-1.29,1.18,2.43,1.76,4.04,1.49l-2.29-1.06c1.8-.07,3.36.15,4.94.36l-.97,1.6c3.35,1.24,6.48.57,9.41.1,2.92-.43,5.65-.7,8.09,1.23,1.91-.99-3.63-1.15-1.89-2.36,3.13.51,6.16,3.19,7.14,3.28,4.18,1.38,4.25-1.96,8.68-.81-.5-.66-.87-2.29,2.57-2.45,3.13.59,3.55,2.93,1.51,3.16-.76-.04-1.1-.27-1.04-.46-1.04.09-2.4.19-1.24.97l.48-.54c1.48.79,5.79,1.23,4.65,2.08,2.42-.2,1.14-.84-.57-1.36,3.89,1.4,6.24.94,10.27,2.1-.6-.42-1.1-1.2-.45-1.1,5.92,1.62,2.84-.74,6.97-.35,2.16,1.28-1.17,1.98,3.01,1.94,2.34,1.06.23,1.64-.82,1.94,3.87-.47,6.54,2.08,8.39,2.8-.63-.01-1.27,0-1.91.01,1.15-.02,2.01.23,2.9.46l-.71-1.42c1.01.47,1.88.74,1.72,1.21,1.3-.42-.28-2.15,2.21-2.5,1.22.99,4.49.92,4.33,2.58-1.99-1.12-2.05-.65-2.01-.13.02.54.08,1.19-1.71.66.73.08,1.59.36,2.46.97.08.22-.26.25-.55.22,1.64,1.42,2.17,1.24,2.9.88.36-.18.73-.37,1.26-.41.53-.03,1.23.1,2.14.66-.9.5-.02,1.93.61,2.14-1.36-.91.09-1.71,1.83-1.38.46.55.85.91,1.21,1.15.34.25.62.39.91.49.57.2,1.07.26,1.55.8-.31-.46-.63-.91-.99-1.33.5-.16,1.02,0,1.57.39.28.19.58.43.92.69.32.28.67.59,1.04.92-.41.58-1.55-1.02-1.3-.29.64.14,1.11.51,1.47,1.02.33.53.56,1.17.76,1.83.37,1.38.65,2.77,1.74,3.85.03,1.46-1.43.84-1.35,2.01,1.1,1.16,1.03,2.08.93,2.92-.08.43-.17.85-.13,1.32.02.48.09,1,.41,1.69.57-.45.74-.75.98-.65.12.05.25.19.44.46.15.28.38.67.68,1.21-.24-1.74-.86-3.44-1.61-5.04.46.46.86.94,1.26,1.45.43.51.77,1.04,1.13,1.61-.06-.42-.12-.85-.28-1.26-.16-.41-.33-.81-.49-1.18-.35-.74-.72-1.38-.76-1.9,1.42,1.34,1.11,1.33,1.8.2-.24.72-.22,1.33-.12,1.92.13.59.4,1.15.62,1.75.12.3.24.61.36.91.1.31.16.63.21.96.04.33.07.67.02,1.01-.07.34-.18.68-.35,1.01l-2.94-.31c-.81,1.63-.76,2.99-1.04,4.67-.29,1.66-.97,3.64-3.08,5.07.53-.22,1-.5,1.49-.77.21.64-.31,1.27-1.05,1.85-.73.59-1.66,1.15-2.25,1.84-.43-.89-1.51-.58-2.45-.74.24.3-.6.77-1.46,1.4-.88.61-1.8,1.38-1.64,2.38-.95-.03-1.91-.11-2.85-.19-4.48,1.13-4.12,4.5-8.77,5.52,1.05-1.43-1.2-1.49,1.59-3.12-1.51.43-2.91.66-2.74,1.32-1.05-.33-3.81,2.51-5.45,2.01-.52.6-.45,1.68-2.19,2.04-.24-.14-.12-.47-.12-.47.12.47-2.52,1.33-.73,2-2.76-.89-6.01.05-9.22.93-3.21.84-6.35,1.71-8.68.88-3.29,1.04-7.31,2.1-10.37,2.78.14-.33-.08-.49.52-.5-4.39-.1-2.12,3.25-7.15,3.07-2.74-1.16,2.43-1.28.79-1.62-1.2-3.12-5.76,1.47-9.33,0l.76-.3c-2.65-.76-5.91,2.11-10.04,2.38,0,0,.16-.31-.04-.49-1.3.99-3.26,1.77-5.39,2.42-1.07.33-2.17.62-3.26.89-1.09.24-2.15.47-3.13.68,1.11-1.38,1.73-.84.85-2.05-1.76.35.73,2.01-2.79,2.71-1.22-.58-3.84-.94-4.3-2.28l3.33-.39c-1.88-1.62-4.31.49-6.1.32l.16-.79c-5.1.64-5.02,2.62-10.55,2.88l.61.56c-2.9,2.12-2.6-.94-5.53.68l-1.03-1.92c-.98.3-2.7.88-4.62,1.45-1.92.55-4.05,1.1-5.83,1.36,1.97-1.56,6.12-2.46,8.65-3.51-1.97.13-6.7.48-7.68,1.5.79-.23,1.77-.75,2.57-.48-2.35,1.65-5.52,2.58-9.47,2.69.56-3.86-10.32-.6-13.26-3.55-6.94,1.57-13.84-.35-21.97-.07,2.91,2.96-2.38.1-1.86,3.15-1.9.21-2.62.16-2.79-.04l-5.76-1.81c-1.36-.89,1.8-.67,1.63-1.36-4.15-.24-1.74-1.3-4.49-2.11.56,1.09-1.44,1.57-3.81,1.15l3.33,1.41c-5.81,1.63-5.01-2.57-10.87-.98l1.85-.96c-3.01.56-11.07-.07-14.03,2.35-.53-.36-1.22-1.2.1-1.41-7.16-.43-15.99,2.41-21.53.78l.56-.74c-1.34.19-2.36,1.36-4.01.56.09-.31.56-.73-.06-.79-.71.24-3.58,1.21-5.34.73l1.54-.8c-6.94-1.18-10.77,1.71-16.65,1.97.11-2.19-5.34-3.16-8.05-3.66l.11-.31c-8.07-.7-13.84,1.02-21.41,1.29-4.45-2.73-15.64-2.37-22.91-4.57,1.09.53-.38,1.68-1.73,1.74-1.69-.66-5.01.92-4.48-1.05l.62.11c-1.07-2.11-4.69-2.07-7.46-2.52l-.83,2.55c-3.39-2.39-8.16-2.78-12.55-3.12-4.38-.34-8.36-.68-9.94-2.78-1.86.3-3.96-.2-5.81.05l.42-1.36c-4.61-1.49-6.88-2.22-12.63-3.63l1.45-.62c-3.13-1.03-5.24,2.62-8.26,1.7l-.17-2.31c-2.75-.97-5.3-2.47-7.86-3.82-2.57-1.36-5.14-2.57-8.11-3.03.23-.24.65-.68,1.52-.34-.6-.3-1.41-.88-2.33-1.46-.91-.59-1.92-1.22-2.82-1.77-1.84-1.07-3.47-1.6-3.82-.13.47-.82-.72-1.6-2.32-2.38-1.6-.76-3.6-1.57-4.91-2.26l1.27-.72c-1.45-.13-2.28-.19-3.07-.46-.78-.28-1.56-.76-2.68-2-.24-.77.58-1.14.83-.13-.38-1.24-.85-1.47-1.39-1.83-.28-.17-.55-.37-.77-.73-.24-.35-.4-.87-.43-1.64.4.28.78.53,1.17.76-.6-2.29-.87-1.96-2.07-3.3-.08-.2-.18-.43-.19-.68-.01-.25,0-.52.03-.8.05-.55.16-1.13.46-1.63.28-.5.53-.94.9-1.22.37-.29.73-.44,1.06-.42-.29-.27-.65-.83-.66-1.5,0-.33.04-.69.14-1.04.1-.36.28-.71.59-1,.53.07.45.7.46,1.01.78-.8,1.24-1.59,1.75-2.33.24-.37.43-.75.63-1.11.22-.35.42-.71.62-1.05.37-.7.82-1.32,1.35-1.86.51-.56,1.19-.97,2.04-1.23.34.31.65.36.94.3-2.99,2.29-4.82,4.48-4.74,4.19.49.41,1.26.14,1.86.13.61-.01,1.03.26,1,1.61.3-1.07.79-2.67,1.69-4.16.45-.74.95-1.48,1.57-2.06.59-.61,1.25-1.09,1.97-1.37.19.02.37.05.57.16l-.18.29c.63-.27,1.07-.7,1.47-1.18.93-.3,1.51-.49,2.33-.9.81.75,3.35-1.14,4.8-1.69-.7-1.22,1.27-1.87-.96-2.13.27-.01-.2.28-1.13.76-.19.14-.43.28-.54.43.01-.05.02-.1.04-.16-.46.24-.98.52-1.56.83-.57.32-1.19.67-1.85,1.05.73-1.21,1.63-2.38,3.56-2.44.34-1.17.81-2.38,1.11-3,2.87.91,7.3.26,8.29,1.14,2.15-1.36,4.89-2.45,7.31-3.75,1.22-.64,2.35-1.34,3.33-2.05.98-.71,1.8-1.48,2.34-2.36,1.26-.78,1.81.19,2.45.42-.7.51-1.65.79-1.95,1.29,1.25-.77,3.24-1.51,4.93-2.3,1.7-.76,3.11-1.53,3.18-2.51,3.71-.23-1.46,2.2,3.22.5l-.48.73c1.27,0,2.44-.13,3.53-.37,1.1-.21,2.13-.52,3.12-.9,1.98-.77,3.78-1.82,5.64-2.85,3.75-1.91,7.72-3.93,13.43-3.02-.78-.09-1.17-.12-1.38-.4,3.12-.17,6.21-.68,9.34-1.15,1.56-.26,3.12-.55,4.68-.86,1.56-.31,3.13-.54,4.7-.81,1.57-.26,3.14-.51,4.71-.74,1.57-.21,3.15-.32,4.72-.42,1.57-.09,3.14-.13,4.69-.1,1.56.05,3.11.23,4.65.47,3.48.36,3.79-.89,5.89-1.84l.8,1.49,3.58-1.82c1.28-.35,2.49-.3,3.67-.08,1.18.24,2.34.7,3.53,1.1,1.19.41,2.42.78,3.76.9.67.06,1.37.06,2.1-.03.73-.07,1.51-.22,2.33-.48l-.8-1.05c2.33.3,7.44-.26,6.98.89.25-.17.83-1.03,1.71-.42l.02.79,5.83-.89c2.2.46,1.95,1.23,1.96,1.96.01.73.28,1.43,3.47,1.88,2.4-.03,7.07-1.51,6.25-2.13-.96-.15-2.42-.77-2.4-1.57l2.26-.16c.69-2.26,2.77-4.42-2.59-6.67l-4.02.97-1.13-1.26,3.26.3c-1.73-1.26-3.01-.49-4.38.05-.25-.62-.76-1.08-1.51-1.37l-3.99,1.91c-.4-.94,1.85-1.67-.68-2.37-1.85.89,1.56,2.17-1.43,2.61-1.77-1.2-1.19-2.02-3.42-1.22-.27-.61.21-.97,1.09-1.2-1.98.63-5.16.07-6.21,1.26-1.89-1.45-6.55.2-6.32-2.02-.62.52-3.44,1.69-5.22,1.76,1.62-1.29-.04-1.39-2.02-1.38-1.97-.02-4.25-.06-3.85-1.48-1.18,1.23-3.36,1.47-5.76,1.77-2.4.26-5.05.41-7.14,1.18.22-.2.67-.61,1.05-.51-2.42-.08-3.16-.66-4.75-.99-.15,1.98-3.84,2.76-5.71,4.14-1.55-.78-1.18-1.39-.54-2.05.64-.63,1.54-1.26.98-2.13.3,1.52-4.94,2.16-3.79,3.35-2.37-.89-1.99-.33-3.35-1.8-.08,2.49-2.04.65-3.69,2.4-3.39-.69-1.16-2.14-4.6-.85-1.81-.48,1.23-1.83,1.23-1.83ZM17.53,32.88s-.01-.02-.02-.02c.63-.45,1.16-.84,1.5-1.08-.31.23-.74.55-1.48,1.1ZM11.6,37.68c.36-.3.76-.65,1.18-1.03.43-.36.89-.74,1.36-1.13.51.21.6.78,0,1.24.05-.25-.31-.15-.82.06-.51.24-1.16.62-1.73.87ZM29.12,37.37c-.82.63-1.23.57-1.49.38.41-.25.88-.57,1.5-.98,0-.06.03-.14.03-.21.03.28.05.56-.04.81Z"/>
      <path class="cls-1" d="M29.97,34.89c.12-.09.18-.18.35-.27-.25-.03-.48-.04-.7-.02-.05.19-.1.39-.14.56.17-.09.34-.19.5-.27Z"/>
      <path class="cls-1" d="M280.56,25.15l.15.03c-.12-.06-.24-.11-.31-.2.1.07.1.11.16.17Z"/>
      <polygon class="cls-1" points="71.1 99.87 71.16 99.52 70.48 99.7 71.1 99.87"/>
      <path class="cls-1" d="M241.75,21.13c-.08-.12-.23-.24-.52-.34.03.09.25.21.52.34Z"/>
      <path class="cls-1" d="M225,21.59l-2.39-.37c1.04.23,1.79.33,2.39.37Z"/>
      <path class="cls-1" d="M212.09,21.61c-.15.26-.18.44-.22.62.01,0,.02,0,.03,0l.19-.62Z"/>
      <path class="cls-1" d="M417.21,38.68c.15.14.31.26.47.36,1.18.77.43.18-.47-.36Z"/>
      <path class="cls-1" d="M355.94,24.88c.67-.18,1.34-.35,2.03-.43-1.07-.23-1.91-.36-2.03.43Z"/>
      <path class="cls-1" d="M391.5,95.01s0-.01,0-.03c-.14.04-.27.08-.41.12l.41-.1Z"/>
      <path class="cls-1" d="M360.79,24.81c-1.05-.41-1.96-.45-2.82-.36.88.2,1.9.46,2.82.36Z"/>
      <path class="cls-1" d="M156.39,25.03h-.62c.02.08-.01.16-.06.22l.68-.22Z"/>
      <path class="cls-1" d="M155.72,25.26l-.67.22c.32-.03.59-.06.67-.22Z"/>
      <path class="cls-1" d="M153.63,25.95l1.41-.47c-.5.04-1.12.04-1.41.47Z"/>
      <path class="cls-1" d="M173.43,24.33l.16-.52c-.1.11-.15.28-.16.52Z"/>
      <path class="cls-1" d="M178.58,23.79c-1.24-.02-3.17-.85-4.87-.4l-.13.42c.75-.82,3.89.93,5-.02Z"/>
      <path class="cls-1" d="M200.56,28.52l-4.35-.1c.79.49,1.83,1.15-.12,1.42,5.55,1.23-1.21-1.13,4.47-1.31Z"/>
      <path class="cls-1" d="M214,28.46c-2.3.4.07.79-.03,1.1,1.44-.59,1.79-.73.03-1.1Z"/>
      <path class="cls-1" d="M310.74,26.84l-.28,1.27c1.79-.11.04-.49.28-1.27Z"/>
      <polygon class="cls-1" points="329.63 21.23 327.93 20.33 327.02 21.44 329.63 21.23"/>
      <polygon class="cls-1" points="339.85 31.14 339.06 31.25 342.06 31.06 339.85 31.14"/>
      <path class="cls-1" d="M370.1,87.67l.87,1.42c1.11-.54.96-2.32-.87-1.42Z"/>
      <path class="cls-1" d="M301.32,98.76c-.82-.74-2.81-1.13-3.97-.28,1.58.01,3.18.53,3.97.28Z"/>
      <polygon class="cls-1" points="91.69 90.63 93.15 90.32 90.49 90.36 91.69 90.63"/>
    </g>
  </g>
</svg>