<?xml version="1.0" encoding="UTF-8"?>
<svg id="Layer_2" data-name="Layer 2" xmlns="http://www.w3.org/2000/svg" viewBox="0 0 66.26 66.26">
  <defs>
    <style>
      .cls-1, .cls-2 {
        fill: #4a4a4a;
        stroke-width: 0px;
      }

      .cls-2 {
        fill-rule: evenodd;
      }
    </style>
  </defs>
  <g id="Iconos">
    <g id="LinkedIn">
      <path class="cls-1" d="M16.57,21.08c2.5,0,4.52-2.02,4.52-4.52s-2.02-4.52-4.52-4.52-4.52,2.02-4.52,4.52,2.02,4.52,4.52,4.52Z"/>
      <path class="cls-1" d="M12.05,27.11c0-1.66,1.35-3.01,3.01-3.01h3.01c1.66,0,3.01,1.35,3.01,3.01v24.09c0,1.66-1.35,3.01-3.01,3.01h-3.01c-1.66,0-3.01-1.35-3.01-3.01v-24.09Z"/>
      <path class="cls-1" d="M30.12,54.21h3.01c1.66,0,3.01-1.35,3.01-3.01v-13.55c0-4.52,9.04-7.53,9.04-1.51v15.06c0,1.66,1.35,3.01,3.01,3.01h3.01c1.66,0,3.01-1.35,3.01-3.01v-18.07c0-6.02-4.52-9.04-10.54-9.04s-7.53,4.52-7.53,4.52v-1.51c0-1.66-1.35-3.01-3.01-3.01h-3.01c-1.66,0-3.01,1.35-3.01,3.01v24.09c0,1.66,1.35,3.01,3.01,3.01Z"/>
      <path class="cls-2" d="M57.23,0c4.99,0,9.04,4.05,9.04,9.04v48.19c0,4.99-4.05,9.04-9.04,9.04H9.04c-4.99,0-9.04-4.05-9.04-9.04V9.04C0,4.05,4.05,0,9.04,0h48.19ZM57.23,6.02c1.66,0,3.01,1.35,3.01,3.01v48.19c0,1.66-1.35,3.01-3.01,3.01H9.04c-1.66,0-3.01-1.35-3.01-3.01V9.04c0-1.66,1.35-3.01,3.01-3.01h48.19Z"/>
    </g>
  </g>
</svg>