<?xml version="1.0" encoding="UTF-8"?>
<svg id="Layer_2" data-name="Layer 2" xmlns="http://www.w3.org/2000/svg" viewBox="0 0 66.26 48.19">
  <defs>
    <style>
      .cls-1 {
        fill: #4a4a4a;
        fill-rule: evenodd;
        stroke-width: 0px;
      }
    </style>
  </defs>
  <g id="Iconos">
    <path id="Mail" class="cls-1" d="M57.23,0c4.99,0,9.04,4.05,9.04,9.04v30.12c0,4.99-4.05,9.04-9.04,9.04H9.04c-4.99,0-9.04-4.05-9.04-9.04V9.04C0,4.05,4.05,0,9.04,0h48.19ZM54.98,6.02H11.29l19.98,15.77c1.09.86,2.64.86,3.73,0l19.98-15.77ZM6.02,9.54v29.61c0,1.66,1.35,3.01,3.01,3.01h48.19c1.66,0,3.01-1.35,3.01-3.01V9.54l-21.51,16.98c-3.28,2.59-7.91,2.59-11.2,0L6.02,9.54Z"/>
  </g>
</svg>