<?xml version="1.0" encoding="UTF-8"?>
<svg id="Layer_2" data-name="Layer 2" xmlns="http://www.w3.org/2000/svg" viewBox="0 0 1256.18 79.59">
  <defs>
    <style>
      .cls-1 {
        fill: #b0a1e4;
        stroke-width: 0px;
      }
    </style>
  </defs>
  <g id="Dibujos">
    <g>
      <path class="cls-1" d="M1255.9,5.82c.64-.47.21-1.42-1.6-1.12l-1.2,1.73,2.8-.6Z"/>
      <path class="cls-1" d="M1243.47,3.45c-2.1.92-4.49,2.47-3.01,3.91,2.03-1.71,2.58-1.08,4.76-3.1,1.81-.3,3.21.35,2.94.97.62-.46,2.85.2,3.77-.89-2.44-1.14-5.45-1.02-8.53.21-.69-.33-.07-.79.07-1.11Z"/>
      <path class="cls-1" d="M1065.28,11.02l1.16.13c-.32-.09-.72-.13-1.16-.13Z"/>
      <path class="cls-1" d="M954.91,16.39c.84-.09,1.18-.27,1.21-.42-.77.15-1.41.29-1.21.42Z"/>
      <path class="cls-1" d="M935.97,15.65c.41.03.75.03,1.12.05-.43-.13-.86-.19-1.12-.05Z"/>
      <path class="cls-1" d="M1065.28,11.02l-2.98-.35c-.18.55,1.53.31,2.98.35Z"/>
      <path class="cls-1" d="M1219.15,8.84c.61-.11,1.12-.3,1.58-.53-.5.1-.99.19-1.49.26-.02.09-.04.17-.08.27Z"/>
      <path class="cls-1" d="M1113.83,6.91l.9-.05c.25-.2.49-.44.71-.71l-1.6.77Z"/>
      <path class="cls-1" d="M1151.14,4.53c-.85-.01-1.06,1.41-1.35,2.04.44-.6,1.05-.92,1.79-1.07,0-.27-.13-.58-.44-.97Z"/>
      <path class="cls-1" d="M1210.46,3.63l1.04-.25c-.27.08-.73.16-1.04.25Z"/>
      <path class="cls-1" d="M1087.1,8.13c-.07-.2-.22-.38-.37-.48,0,.18.15.33.37.48Z"/>
      <path class="cls-1" d="M43.82,78.12c.02-.1-.02-.16-.02-.25-.21.15-.27.26.02.25Z"/>
      <path class="cls-1" d="M.16,73.63l.6-.11c.05-.27.1-.53.08-.79l-.68.9Z"/>
      <path class="cls-1" d="M901.4,15.81c.07.01.09.01.15.02.9-.21.39-.15-.15-.02Z"/>
      <path class="cls-1" d="M585.01,34.87c3.66,1.05-5.74,1.94-.27,3.03-.53-.52,4.78-2.47.27-3.03Z"/>
      <path class="cls-1" d="M1218.17,8.71c-.5.04-1.01.09-1.53.1.7,0,1.17-.02,1.53-.1Z"/>
      <path class="cls-1" d="M584.74,37.89s0,.01,0,.01l.56.1c-.23-.04-.37-.07-.57-.11Z"/>
      <path class="cls-1" d="M822.02,21.18c.18.24.5.41.84.57-.04-.14-.23-.31-.84-.57Z"/>
      <path class="cls-1" d="M881.3,19.8l-1.47-.1c.59.09,1.06.11,1.47.1Z"/>
      <path class="cls-1" d="M791.41,24.91c-.8-.06-1.08-.24-2.16.01.11.06.21.11.34.15.38-.21.9-.33,1.82-.16Z"/>
      <path class="cls-1" d="M759.43,26.74c.18.1.4.17.61.25.32-.05.68-.09,1.01-.13l-1.61-.12Z"/>
      <path class="cls-1" d="M140.96,71.91c-.72-.35-1.18-.77-1.55-1.18.55.97-4.13,1.59,1.55,1.18Z"/>
      <path class="cls-1" d="M1219.09,8.05c-.17.36-.43.56-.92.66.37-.04.72-.08,1.06-.14.08-.21.09-.41-.14-.52Z"/>
      <path class="cls-1" d="M790.74,36.05l-5.09.08c1.43.06,3.28.02,5.09-.08Z"/>
      <path class="cls-1" d="M370.35,58.64l-1.16.23c.45,0,.86-.06,1.16-.23Z"/>
      <path class="cls-1" d="M770.58,37.2c-.93-.44-1.91-.68-2.92-.81-.2.12-.44.23-.57.4l3.49.41Z"/>
      <path class="cls-1" d="M139.4,70.72s.01.01.01.01c0,0,0,0-.01-.01Z"/>
      <path class="cls-1" d="M106.12,75.95c4.84-.24,2.17-1.93,3.14-3.05,5.75-.85,2.75,1.2,4.77,2.04,3.58-.69,6.25-2.54,8.95-2.63.22.29.75.37.16.79,3.73-1.68,11.32-.72,15.66-2.81.34.14.52.29.61.43-.77-.88-.94-1.82-.83-2.49,2.17-.16,3.96-1.39,4.85-.24-1.33.04-1.42.53-2.02.94l2.24-.65c2.15,1.61-3.07.78-3,2.06,4.4-.82,9.49-2.54,12.91-2.25.81,1.65-7.91,1.02-3.29,2.27l-5.29-.35c4.17,2.45-3.2,0,.65,2.65,6.95.1,7.69-1.3,14.62-1.2,1.5-1.03-.59-1.36.91-2.4,9.71-2.25,7.96,3.82,15.05,1.15,1.8-1.24,2.4-3.42,7.6-2.58l-1.64,2.02c6.71-.19,3.67-2.97,10.76-2.08-1.2.82-5.23.93-4.2,1.11,4.63,1.25,3.15-1.27,6.65-1.47l.82,1.66c7.12-.67,14.9-2.35,22.78-3.11-.41.53-1.73,1.14.15,1.55,9.91-1.42,21.28-1,30.94-.54l3.59-1.67c.85-.03,1.62.57.71.91,3.78.34.14-.94,1.91-1.62,2.12-.22,2.86.68,1.54,1.2,6.54-1.62,18.67-3.75,25.72-2.58l-1.33.51c5.46.29,5.95-3.35,11.05-2.27l-.95.31c11.8-.03,24.73-2.12,33.83-.42,1.59-2.21,11.7.28,12.29-2.71,6.8,1.08,4.91,1.71,14.43,2.15,2.53,0,3.66-2.05,6.77-2.54l.16,1.53,4.15-1.85,2.36,1.71,2.91-.56c-1.17-.02-2.52-.55-2.37-1,4.54-.96,11.22.44,11.38,1.22l10.76-1.92c-.21.63-2.01.95-3.42,1.42,5.69-1.9,1.14,1.56,6.36-.18-.73-.31.33-.94.43-1.26,2.69.78,8.7.45,13.13-.2l-.79,1.11c8.05-.19,16.91-1.47,25.92-1.97-3.26-.31-2.62-2.19.01-2.52l1.15,1.57c1.65-1.1-2.8-.46.64-1.89,3.38,0,2.37,1.72.47,2.36l4.06-.8c.27.47-.68.78-.89,1.42,1.62-1.11,7.16,1.23,9.48-.66l.26.47c9.01-.5,13.07-1.29,20.41-1.79.06-1.41,2.95-1.26,5.07-2.52,5.42.14,11.47.9,17.96.41,4.53-.96,1.27-1.26,3.27-2.22.41,1.26,6.89.77,3.58,1.88,7.79-.65,9.95-.82,19.76-2.42-1.1-.46-2.32-.62-1.72-1.09,1.78-.31,4.1.3,3.88.93l-.46.16c10.97-2.55,25.77,2.27,34.44-.9l-.49.16,9.07-1.91c4.22-.02-2.47,1.1.69,1.72,9.74-2.7,15.61-.58,23.65-2.46,6.5,3.41,22.3-1.54,30.93.39l-.54-.86c2.14-1,2.68.36,4.31.47-.27-.68-2.43-.66-1.09-1.22,18.52-2.13,38.43-.89,57.53-1.17,6.98-.16,3.69-4.82,12.6-3.2l-2.4,1.79c13.95-2.78,28.76-1.57,42.43-4.03-.8.43-.79.92-2.14.99,2.98,1.03,10.76-.55,10.75-1.53,2.15-.01.55.86,1.9,1.28,2.96.54,7.23-1.95,8.85-.84.27.18-.8.44-1.33.56,1.87-.69,8.86-.36,6.97-1.64,5.21.37,9.85-1.18,14.02-.59,2.6-1.7,8.89.24,9.62-1.99-.24,2.28,9.16,1.3,12.37.06-1.05.74,2.88.55,1.65,1.56,3.73-.24,7.12-.86,6.4-1.98,7.02,2.31,13.68-2.96,17.75.28,11.01-1.84,21.21-3.25,31.14-4.34-.23,2.27-11,.85-10.44,3.19,9.4-1.47,14.74-3.71,24.14-3.7,2.44.17-1.32,1.06-2.12,1.49,9.39-1.47,18.27-.83,26.6-2.54-.01.21-.91.49-1.75.71,1.65-.17,3.87.11,3.62-.9l-1.6.37c-2.73-1.34,6.4-3.48,6.65-4.28-2.64,3.09,8.34.26,4.09,4.22,1.08-.25,2.42-.82,2.13-1.49,1.63.11,2.16.48.57,1.35,5.9-.89,3.73-1.86,9.11-2.15,0,.5-1.06.75-1.59,1.36,2.67-1.12,5.34-2.24,9.91-2.08-.26.31.29.67-1.06.74,7.79-.59,13.15-3.33,21.76-2.88-2.4,2.3,2.95.54,3.51,2.38l4.57-.82-1.9-.8c4.03-.2,7.52-1.76,11.02-1.34l-2.95.94,7.53-.78-4.31-.46c4.02-1.19-.57-2.33,4.82-2.12-1.08.25,4.03-.21,6.2.77,0,0-.01,0-.01,0,1.96-.71,3.98-1.45,6.98-1.16.81.55-.51,2.1.02,2.46,1.88-1.67,9.41-.97,11.81-2.77-.81.44-.8,1.42-.51,1.6l1.58-1.36c1.89.3,2.17.48,1.92,1.28,5.63-.09-1.92-2.26,4.8-1.62-.52.13-.26.31-1.34.56,6.72.15,12.89-1.54,19.07-1.27,1.92,1.77-5.35.77-3.18,2.23,8.85-.84,18.24-3.29,26.84-3.34l-1.61-.12c1.04-2.71,6.47.94,10.73-.55-1.05.26-1.31,1.55-1.04,1.24,5.9.09,11.98-1.34,20.84-2.67l-1.06.74c3.5.41,9.14-.17,12.9-.07,1.07-.74,3.22-.75,1.86-1.67,11.76,3.22,21.89-3.33,32.31-.69-1.22.08-2.88.76-1.91.71l8.68-1.12c-.76-1.11-1.18-.63-3.07-1.43,1.06-.75,3.5-1.42,5.66-1.54-3.88.99.14,1.85,1.87,2.4-.3-.34.25-.76.09-1.11,4.67,1.79.63-2.36,6.93-1.34l-.29.62c2.31-.44,4.41-1.36,6.93-1.33,1.12,1.28-2.44.76-2.54,1.87,3.52-.28,6.81-2.92,10.08-1.78-1.48.46-3.63.59-5.1,1.04,3.56,1.37,3.94.95,6.54,1.05l-.26-.02,6.01.37-1.54-.34c4.21-3.73,8.95-1.15,14.76-3.76-5.65,2.49-.88,1.3-1.24,2.84,1.54.33,3.87.67,3.24,1.14,2.74-1.38,4.74.69,8.6-1.32.21.48,3.01-.12,2.44,1.14,3.63-.59-.91-.8-.64-1.43,5.53-1.98,13.34,1.26,21.31-1.48,6.93-1.34,8.12-3.05,14.56-4.24,2.23.65-1.69,1.88-1.69,1.88,3.57.52,6.21.23,9.51-.51-.65.46.07.78,1.11,1.27,2.66-.28,1.68-1.87,5.24-1.36-.57.58-1.3,1.49-2.55,2.11,3.12-.63,6.17-1.71,9.4-2.34.91.8-1.89,1.4-3.01,2.02,3.64-.59,9.43-1.31,10.49-2.72l-2.37-.35c1.33-.14.75,1.11-.22,1.42-3.07,1.23-4.55-.21-4.75-.69l2.3-.44c-2.54-2.72-9.28.99-13.96,1.09l1.83-2.19-4.69,2c-1.05-.48-1.81-1.6.48-2.04-3.4-.84-2.92.91-5.86-.07-.33-.16-.19-.27.1-.37l-3.23.81c.62-.47-.63-1.44,1.4-1.25-5.93-.86-9.37,2.1-11.67.65l.48-.16c-8.1,1.17-.7,1.57-6.7,3.71l-4.32-3.53-.71,1.57c-.84,0-2.51-.03-2.24-.65-3.07,1.22.57.63-1.19,1.72-4.12-1.16-11.11,1.28-12.15-1.09-1.38,1.24,3.92.67-.35,1.72-1.38-2.54-4.96.73-8.72-.26,1.06-1.41,4.59-.9.83-1.89-2.1,2.4-7.22-.09-10.31.52-.04,1.82-6.73,1.14-11.92,2.04.3-.63-9.89-.44-14.79-.82l.13-.31c-.84,1.89-5.87,1.83-9.5,2.41.08-1.1.71-1.58,2.66-2.18l-3.43.2c-.78.63-1.83,1-4.04,1.34l.79-1.42c-4.56.34-9.11,2.14-15.04,1.56-.26,1.3,4.88,3.29-1.29,4.5-.27-.68-.57-1.85,1.04-2.22-.53.12-1.87.68-2.96.45l2.42-1.3c-2.71-.36-1.34,1.05-3.49,1.06-.01-.99-1.62-.61-1.36-1.41.54-.13,1.89.3,2.69-.13-2.42-.04-5.37-.46-6.38-1.15.24.55.08,1.33-1.68,1.56-4.56.33-1.63-1.1-4.32-1.45-1.07.75-4.02.2-4.01,1.68-1.34.07-1.62-.6-2.16-.97-2.33.78-11.03.81-8.28,2.23l.61.07c-.11.04-.25.05-.38.09h.02s-.02,0-.02,0c-7.67,1.91-16.14.08-23.8,1.15l-.02-.49c-4.56.82-10.2.91-13.41,2.16-1.36.08-3.26-.72-2.71-1.34-3.49.57-3.85,1.15-8.96.62,3.48-1.06-1.26-.69,3.58-.84-4.58-.17-5.66-.9-10.48.73,1.59-1.36-3.52-1.4-5.67-.89l3.25.72c-2.43.32-4.56.33-6.73.35l1.08-1.73c-9.44-1.49-16.63,4.4-23.92,1.42-2.4,1.3,5.11.53,2.98,2.01-4.3.02-8.91-2.11-10.25-2.04-5.93-.59-5.35,2.74-11.53,2.46.82.55,1.65,2.09-2.91,2.91-4.31.03-5.42-2.18-2.74-2.81,1.03-.11,1.53.05,1.5.25,1.38-.29,3.18-.65,1.44-1.2l-.52.62c-2.16-.48-8.07-.08-6.74-1.13-3.21.75-1.33,1.05,1.09,1.22-5.56-.54-8.61.46-14.31.21.92.28,1.79.92.89.97-8.36-.26-3.6,1.33-9.22,1.91-3.25-.72,1.02-2.22-4.6-1.14-3.5-.41-.82-1.53.53-2.09-5.1,1.44-9.7-.2-12.66-.24l2.69-.63c-1.61.38-2.95.44-4.3.52l1.62,1.1c-1.61-.12-2.96-.04-2.96-.54-1.6.87,1.37,1.9-1.83,3.15-2.16-.48-6.45,1.02-7.28-.51,6.73.15-.83-1.54,4.83-2.11-1.08.25-2.42.32-4.03.2-.25-.16.21-.34.64-.45-6.49-1.04-2.85,1.95-9.49,2.29.79-.93-1.64-1.59-2.71-1.34,2.68-.13,1.37,1.41-1.05,2.22-4.3-.45-4.6.78-6.84.82l2.57.18c-.81.94-2.95.94-5.9,1.39-.29-.68,2.67-.63,1.59-.87-3.21,1.75-7.54-1.19-12.08.12-2.16-.48-.3-1.65-2.2-1.95-5.09,1.44-5.65-.9-11.01.36,1.63,1.1,1.89.8-1.86,2.17l8.86-1.35-5.62,2.06c2.69-.14,5.63-1.07,7.25-.96-2.67,1.13-2.4.81-1.06,1.73-3.78-1.58-7.23,1.46-11.55.49l-.04-2.96c-6.47-.95-11.27,2.16-19.61,1.89l2.7.36c-1.05,1.23-5.11.46-7.78,1.08.19-1-1.51-1.26-2.69-1.81.18.72-6.08.28-6.72,2.29l-3.78-1.09c-6.73-.15-7.49,3.24-13.95,3.27,1.88-1.18-1.09-1.71,3.18-2.73-2.15.11-4.1.04-4.09.73-1.29-.55-5.89,1.67-7.92.84-.88.48-1.12,1.53-3.54,1.59-.28-.18-.02-.49-.02-.49.02.49-3.74.88-1.57,1.85-6.8-2.7-18.5,1.28-24.42-1.03-4.67.6-10.31,1.24-14.57,1.55.26-.31-.01-.49.8-.44-5.93-.58-3.45,3.04-10.2,2.39-3.51-1.4,3.5-1.06,1.34-1.55-1.11-3.19-8.05.9-12.66-.73l1.08-.25c-3.5-.91-8.32,1.71-13.96,1.8,0,0,.26-.3,0-.49-3.75,1.87-11,2.83-16.38,3.6,1.61-1.36,2.42-.81,1.32-2.04-2.41.32.83,2.03-3.99,2.67-1.61-.61-5.14-1.01-5.68-2.36l4.56-.33c-2.44-1.65-5.9.4-8.33.22l.26-.8c-6.98.65-6.97,2.62-14.49,2.91l.81.55c-4,2.18-3.51-.9-7.52.78l-1.35-1.9c-2.68.63-9.39,2.45-14.23,3.09,2.67-1.62,8.32-2.69,11.79-3.76-2.69.14-9.12.67-10.47,1.72,1.07-.25,2.41-.81,3.5-.57-3.21,1.74-7.5,2.75-12.86,3.02.73-3.88-14.01-.17-18.06-2.91-9.39,1.95-18.83.47-29.85,1.32,4.08,2.75-3.22.27-2.37,3.28-2.56.34-3.54.35-3.78.16l-7.89-1.38c-1.9-.78,2.41-.81,2.13-1.48-5.64.09-2.43-1.16-6.21-1.76.83,1.05-1.87,1.68-5.1,1.44l4.6,1.15c-7.77,2.07-6.94-2.17-14.78-.11l2.45-1.1c-4.04.8-15.01.84-18.86,3.51-.74-.31-1.74-1.09.04-1.41-9.74.19-21.49,3.84-29.13,2.76l.7-.79c-1.8.32-3.08,1.58-5.39.96.1-.32.69-.79-.15-.78-.95.31-4.74,1.58-7.17,1.28l2.01-.96c-9.54-.44-14.44,2.87-22.36,3.84-.1-2.2-7.61-2.49-11.35-2.63l.11-.32c-11.06.36-18.65,2.89-28.83,4.33-6.48-2.02-21.56.23-31.84-.53,1.58.31-.16,1.73-1.96,2.05-2.42-.31-6.53,1.9-6.27-.14h.86c-1.92-1.88-6.81-1.08-10.65-.91l-.48,2.67c-10.27-3.26-26.25,2.91-31.93-.21-2.39.8-5.39.96-7.76,1.76l.05-1.42c-6.74.02-10.1.04-18.39.85l1.64-1.11c-4.69.18-5.68,4.41-10,4.74l-1.42-2.04c-8.17.5-16.55-.88-24.51,1.49.11-.32.32-.94,1.64-1.1-3.85.16-14.96-.58-13.4,2.24-.2-1.88-8.44.3-12.81,1.38l.61-1.43c-3.62,1.99-3.72,2.48-8.89,3.27-1.24-.11-1.14-1.05.51-.79-4.15-.49-3.13,1.5-8.15,1.04l1.81-.99c-4.23.13-3.87.59-6.14,1.76-2.63.71-8.04.11-8.73-1.12-.53.8-2.78,1.96-5.29,1.74-.36-.46.53-.8.97-.97-7.12-.54-10.42,2.22-15.35,1.13-.13-.46-.46-.67-.87-.78,5.62-.29,10.14-.47,9.72-.34-.07-1.28-4.62-1.25-1.11-3.23-3.59,1.17-9.69,3.63-14.15,3.28-.22-.11-.44-.22-.61-.41l.45-.17c-1.03-.07-1.93.1-2.78.37-1.42-.13-2.33-.24-3.68-.18-.58-1.03-5.23-.28-7.5-.2.27,1.39-2.71,1.34.13,2.34-.36-.08.42-.19,1.92-.34.34-.06.74-.1.96-.2-.04.04-.09.09-.15.13,1.48-.12,3.42-.27,5.62-.41-1.75.81-3.58,1.52-6.12.88-1.11.97-2.33,1.97-3.03,2.44-3.21-1.78-9.23-2.5-10.13-3.66-6.86,1.18-16.24,1.45-20.43,4.33-1.94.45-2.3-.63-3.06-1,1.12-.33,2.47-.37,3.06-.78-3.89.9-11.61.93-12.45,2.82-5-.55,2.68-1.85-4.1-1.17l.89-.62c-13.54-2.18-21.47,5.94-36.52,3.01,1.04.17,1.56.25,1.79.55-17-.7-34.75,3.55-51.58,1.85-4.77-.26-5.22.94-8.06,2l-1.11-1.45-4.85,2.02c-6.94,1.67-12.36-3.01-21.1-.09l1.2.95c-3.2,0-10.07,1.17-9.6-.02-.32.2-.99,1.12-2.26.66l-.14-.78-7.76,1.8c-6.11-.22.77-3.19-8.1-2.83-3.28.49-9.25,2.83-7.99,3.29,1.33-.04,3.43.3,3.57,1.08l-2.99.58c-.41,2.36-2.6,4.87,4.89,6.07l5.07-1.71,1.72,1.03-4.33.32c2.52.92,4.03-.11,5.74-.85.45.58,1.2.95,2.23,1.12l4.93-2.51c.66.87-2.17,1.93,1.26,2.24,2.31-1.17-2.39-1.91,1.5-2.81,2.53.92,1.86,1.82,4.7.75.44.58-.15.99-1.28,1.32,2.54-.86,6.8-.69,8.06-2,2.64,1.16,8.68-.83,8.55,1.38.78-.57,4.44-1.99,6.8-2.21-4.17,2.88,8.87-.35,7.89,2.54,3.06-2.55,11.5-1.71,17.09-3.35-.31.21-.91.62-1.41.53,3.2.01,4.17.68,6.24,1.01.3-1.98,5.24-2.71,7.85-4.07,4.02,1.66-2.24,2.43-.91,4.17-.29-1.57,6.7-1.97,5.3-3.21,3.06,1,2.61.42,4.24,1.95.39-2.48,2.76-.57,5.16-2.22,4.4.96,1.24,2.23,5.96,1.21,2.3.62-1.87,1.73-1.87,1.73ZM218.95,65.29s0,.02,0,.03c-.97.09-1.8.16-2.33.21.49-.05,1.16-.11,2.33-.24ZM228.45,64.72c-1.16.01-2.6.08-4.12.18-.36-.46-.03-.99.93-1.01-.5.35,1.76.51,3.2.83ZM207.8,56.14c1.49-.28,2.01-.04,2.23.24-.71.06-1.54.16-2.62.32-.04.05-.13.12-.17.18.13-.28.28-.54.55-.74Z"/>
      <path class="cls-1" d="M205.2,58.14c-.22.04-.33.11-.61.14.31.11.61.19.92.26.17-.16.35-.32.51-.47-.27.02-.56.04-.81.07Z"/>
      <path class="cls-1" d="M1066.64,11.17l-.2-.02c.17.05.33.09.43.18-.14-.06-.14-.1-.23-.16Z"/>
      <polygon class="cls-1" points="359.81 59.94 359.77 59.58 358.96 59.94 359.81 59.94"/>
      <path class="cls-1" d="M1119.24,13.01c.11.12.31.23.71.32-.04-.09-.34-.2-.71-.32Z"/>
      <path class="cls-1" d="M1141.87,12.03l3.23.32c-1.4-.21-2.42-.28-3.23-.32Z"/>
      <path class="cls-1" d="M1159.29,11.74c.21-.26.26-.45.31-.62-.01,0-.02,0-.03,0l-.27.63Z"/>
      <path class="cls-1" d="M883.03,29.12c-.23.02-.46.05-.67.1-1.56.36-.49.19.67-.1Z"/>
      <path class="cls-1" d="M965.09,21.16c-.86.3-1.7.6-2.61.81,1.47.02,2.61-.01,2.61-.81Z"/>
      <path class="cls-1" d="M791.3,36.04s0-.01,0-.03c-.2.02-.37.02-.57.03h.56Z"/>
      <path class="cls-1" d="M958.65,22.17c1.48.2,2.7.07,3.83-.19-1.21-.03-2.63-.09-3.83.19Z"/>
      <path class="cls-1" d="M1234.65,8.09h.84c-.02-.08.03-.16.09-.22l-.93.22Z"/>
      <path class="cls-1" d="M1235.58,7.86l.92-.22c-.43.02-.8.06-.92.22Z"/>
      <path class="cls-1" d="M1238.44,7.18l-1.94.46c.68-.03,1.52-.04,1.94-.46Z"/>
      <path class="cls-1" d="M1211.61,8.75l-.23.52c.14-.11.22-.28.23-.52Z"/>
      <path class="cls-1" d="M1204.62,9.29c1.67.02,4.25.85,6.56.4l.19-.42c-1.05.82-5.21-.93-6.75.02Z"/>
      <path class="cls-1" d="M1175.08,4.66l5.88.07c-1.06-.48-2.44-1.14.21-1.42-7.48-1.2,1.59,1.13-6.1,1.34Z"/>
      <path class="cls-1" d="M1156.87,4.91c3.13-.43-.08-.79.07-1.1-1.97.61-2.44.76-.07,1.1Z"/>
      <path class="cls-1" d="M1025.58,12.38l.24-1.29c-2.42.32,0,.5-.24,1.29Z"/>
      <polygon class="cls-1" points="1000.86 20.41 1003.27 21.07 1004.33 19.84 1000.86 20.41"/>
      <polygon class="cls-1" points="985.52 12.16 986.57 11.92 982.55 12.61 985.52 12.16"/>
      <path class="cls-1" d="M765.05,25.17l.82,1.53c1.62-.38,1.87-2.16-.82-1.53Z"/>
      <path class="cls-1" d="M669.95,32.19c-1.08-.73-3.79-1.08-5.39-.21,2.15-.01,4.32.48,5.39.21Z"/>
      <polygon class="cls-1" points="384.33 45.89 386.22 45.25 382.63 45.9 384.33 45.89"/>
    </g>
  </g>
</svg>