<?xml version="1.0" encoding="UTF-8"?>
<svg id="Layer_2" data-name="Layer 2" xmlns="http://www.w3.org/2000/svg" viewBox="0 0 59.33 59.33">
  <defs>
    <style>
      .cls-1 {
        fill: #4a4a4a;
        fill-rule: evenodd;
        stroke-width: 0px;
      }
    </style>
  </defs>
  <g id="Iconos">
    <path class="cls-1" d="M44.68,59.1c-5.76-1.44-17.55-5.51-28.24-16.2C5.74,32.2,1.67,20.41.23,14.65c-.83-3.31.66-6.51,3.2-8.31L10.07,1.59c3.88-2.77,9.29-1.83,12.01,2.09l4.18,6.04c1.77,2.56,1.16,6.08-1.37,7.89l-3.33,2.38c.5,1.93,2.07,5.89,6.99,10.81,4.91,4.91,8.88,6.48,10.81,6.99l2.38-3.33c1.81-2.54,5.32-3.15,7.89-1.37l6.04,4.18c3.92,2.72,4.87,8.12,2.09,12.01l-4.74,6.64c-1.81,2.53-5,4.03-8.31,3.2ZM20.47,38.86c9.72,9.72,20.45,13.41,25.6,14.7.75.19,1.66-.1,2.29-.98l4.74-6.64c.92-1.29.61-3.1-.7-4l-6.04-4.18-2.55,3.58c-1.04,1.46-2.97,2.61-5.22,2.12-2.81-.61-7.99-2.55-14.08-8.64-6.09-6.09-8.03-11.28-8.64-14.08-.49-2.25.66-4.18,2.12-5.22l3.58-2.55-4.18-6.04c-.91-1.31-2.71-1.62-4-.7l-6.64,4.74c-.88.63-1.17,1.53-.98,2.29,1.29,5.15,4.98,15.88,14.7,25.6Z"/>
  </g>
</svg>